<?xml version="1.0"?>
<svg xmlns="http://www.w3.org/2000/svg" version="1" viewBox="0 0 24 24" enable-background="new 0 0 24 24">
    <path d="M 4 5 C 2.9 5 2 5.9 2 7 L 2 14 C 2 14.729 2.4033623 15.38669 3.03125 15.71875 C 3.0181566 15.810723 3 15.904559 3 16 C 3 17.1 3.9 18 5 18 C 6.1 18 7 17.1 7 16 C 7 17.1 7.9 18 9 18 C 10.1 18 11 17.1 11 16 L 13 16 C 13 17.1 13.9 18 15 18 C 16.1 18 17 17.1 17 16 C 17 17.1 17.9 18 19 18 C 20.1 18 21 17.1 21 16 C 21 15.904559 20.981843 15.810723 20.96875 15.71875 C 21.596638 15.386691 22 14.729 22 14 L 22 7 C 22 5.9 21.1 5 20 5 L 4 5 z M 4.5 7 L 7.5 7 C 7.8 7 8 7.2 8 7.5 L 8 10.5 C 8 10.8 7.8 11 7.5 11 L 4.5 11 C 4.2 11 4 10.8 4 10.5 L 4 7.5 C 4 7.2 4.2 7 4.5 7 z M 10.5 7 L 13.5 7 C 13.8 7 14 7.2 14 7.5 L 14 10.5 C 14 10.8 13.8 11 13.5 11 L 10.5 11 C 10.2 11 10 10.8 10 10.5 L 10 7.5 C 10 7.2 10.2 7 10.5 7 z M 16.5 7 L 19.5 7 C 19.8 7 20 7.2 20 7.5 L 20 10.5 C 20 10.8 19.8 11 19.5 11 L 16.5 11 C 16.2 11 16 10.8 16 10.5 L 16 7.5 C 16 7.2 16.2 7 16.5 7 z M 5 15.5 C 5.3 15.5 5.5 15.7 5.5 16 C 5.5 16.3 5.3 16.5 5 16.5 C 4.7 16.5 4.5 16.3 4.5 16 C 4.5 15.7 4.7 15.5 5 15.5 z M 9 15.5 C 9.3 15.5 9.5 15.7 9.5 16 C 9.5 16.3 9.3 16.5 9 16.5 C 8.7 16.5 8.5 16.3 8.5 16 C 8.5 15.7 8.7 15.5 9 15.5 z M 15 15.5 C 15.3 15.5 15.5 15.7 15.5 16 C 15.5 16.3 15.3 16.5 15 16.5 C 14.7 16.5 14.5 16.3 14.5 16 C 14.5 15.7 14.7 15.5 15 15.5 z M 19 15.5 C 19.3 15.5 19.5 15.7 19.5 16 C 19.5 16.3 19.3 16.5 19 16.5 C 18.7 16.5 18.5 16.3 18.5 16 C 18.5 15.7 18.7 15.5 19 15.5 z"/>
</svg>
